<svg width="581" height="75" viewBox="0 0 581 75" fill="none" xmlns="http://www.w3.org/2000/svg">
<path d="M27.9934 2.11275C43.097 2.11275 52.289 11.4092 52.289 26.4102C52.289 41.5118 42.9914 50.28 27.9934 50.28H17.8506V73.9385H0V2.11275H27.9934ZM17.8556 17.4307V34.957H25.0401C29.9003 34.957 33.7038 32.9549 33.7038 26.4102C33.7038 19.7498 29.9003 17.4307 25.0401 17.4307H17.8556Z" fill="#009DE0"/>
<path d="M60.4343 33.8V22.6071C67.9358 21.1231 75.6436 20.0717 82.1941 20.0717C95.7179 20.0717 103.637 23.3415 103.637 37.9149V73.9385H88.3221L86.7373 68.2339H86.526C82.7224 73.5159 78.4962 74.9999 72.3733 74.9999C62.4418 74.9999 57.1641 67.2881 57.1641 58.198C57.1641 44.4647 67.2013 41.718 74.6977 41.718H86.7423V38.6645C86.7423 35.3846 85.4745 33.8 80.1917 33.8H60.4343ZM86.7373 51.8595H79.9754C76.3832 51.8595 74.0587 53.2329 74.0587 57.0359C74.0587 61.1509 77.0171 62.1067 79.8698 62.1067C82.5111 62.1067 86.7373 60.5271 86.7373 55.24V51.8595Z" fill="#009DE0"/>
<path d="M129.765 -6.10352e-05V15.6298H112.865V-6.10352e-05H129.765ZM129.765 21.1281V73.9386H112.865V21.1281H129.765Z" fill="#009DE0"/>
<path d="M161.37 20.0767C168.237 20.0767 172.569 20.5999 180.066 22.6121V33.805H162.215C158.2 33.805 156.51 35.1783 156.51 36.8686C156.51 38.5588 157.461 39.7159 161.581 40.561C170.562 42.1406 182.39 44.4697 182.39 57.881C182.39 70.5579 172.247 74.9949 159.468 74.9949C152.601 74.9949 145.421 74.4667 137.92 72.4595V61.2465H158.517C162.215 61.2465 163.8 59.6769 163.8 57.866C163.8 56.1656 162.743 55.0187 158.729 54.2691C149.642 52.6896 138.025 50.4661 138.025 36.8485C138.025 24.5036 148.696 20.0767 161.37 20.0767Z" fill="#009DE0"/>
<path d="M257.244 36.7579C255.342 48.479 251.644 56.6134 247.418 62.2174L258.723 73.9385H247.101L241.396 68.1332C234.528 73.7322 226.926 74.9999 221.326 74.9999C205.906 74.9999 198.721 66.8655 198.721 55.8789C198.721 46.8994 204.427 41.0942 211.4 36.7579C206.434 30.7364 202.842 25.8819 202.842 19.2316C202.842 7.29419 212.879 1.06641 226.081 1.06641C231.68 1.06641 233.688 1.58957 240.445 2.96291V9.407H226.186C216.36 9.407 212.245 13.4163 212.245 19.7548C212.245 24.8255 216.26 29.4737 226.503 40.3598L241.713 56.5178C244.988 52.1966 247.841 45.8531 249.214 36.7629L257.244 36.7579ZM235.801 62.5292L216.365 42.1406C211.294 45.0985 207.385 49.1179 207.385 55.24C207.385 60.2102 209.815 67.8163 221.96 67.8163C224.918 67.8163 230.518 66.9712 235.801 62.5292Z" fill="black"/>
<path d="M333.587 73.9385H314.041L310.227 59.1588H291.109L287.411 73.9385H267.87L287.834 1.58455H313.407L333.587 73.9385ZM294.183 45.4255H307.073L300.633 21.44H300.527L294.183 45.4255Z" fill="#009DE0"/>
<path d="M338.996 -6.10352e-05H355.891V57.3529C355.891 60.6278 356.947 61.2566 362.753 61.2566V74.4617C342.472 75.5131 338.98 71.8257 338.98 57.3529V-6.10352e-05H338.996Z" fill="#009DE0"/>
<path d="M415.218 21.1281V73.9384H399.898L398.318 68.2388H398.112C394.303 72.887 389.655 74.9998 383.542 74.9998C372.544 74.9998 368.212 67.9169 368.212 58.4142V21.1281H385.111V56.8346C385.111 60.844 388.492 62.1117 391.345 62.1117C394.092 62.1117 398.318 60.3208 398.318 55.245V21.1331L415.218 21.1281Z" fill="#009DE0"/>
<path d="M424.495 73.9384V21.1281H439.815L441.394 26.8377H441.606C445.304 22.1895 450.058 20.0767 456.181 20.0767C467.169 20.0767 471.501 27.2603 471.501 36.7579V73.9384H454.601V38.3425C454.601 34.2276 451.115 32.9599 448.368 32.9599C445.621 32.9599 441.394 34.7558 441.394 39.9372V73.9485H424.495V73.9384Z" fill="#009DE0"/>
<path d="M479.209 47.5383C479.209 30.7414 486.187 20.0818 504.777 20.0818C523.478 20.0818 530.446 30.7414 530.446 47.5383C530.446 64.4358 523.478 74.9999 504.777 74.9999C486.187 74.9999 479.209 64.4358 479.209 47.5383ZM496.954 47.5383C496.954 56.6285 498.533 61.3722 504.777 61.3722C511.116 61.3722 512.696 56.6285 512.696 47.5383C512.696 38.4482 511.116 33.7044 504.777 33.7044C498.549 33.6943 496.954 38.4482 496.954 47.5383Z" fill="#009DE0"/>
<path d="M559.98 20.0767C566.832 20.0767 571.174 20.5999 578.67 22.6121V33.805H560.825C556.805 33.805 555.114 35.1783 555.114 36.8686C555.114 38.5588 556.06 39.7159 560.186 40.561C569.166 42.1406 581 44.4697 581 57.881C581 70.5579 570.857 74.9949 558.073 74.9949C551.205 74.9949 544.021 74.4667 536.524 72.4595V61.2465H557.127C560.825 61.2465 562.41 59.6769 562.41 57.866C562.41 56.1656 561.353 55.0187 557.338 54.2691C548.247 52.6896 536.635 50.4661 536.635 36.8485C536.635 24.5036 547.306 20.0767 559.98 20.0767Z" fill="#009DE0"/>
</svg>
