<svg width="581" height="75" viewBox="0 0 581 75" fill="none" xmlns="http://www.w3.org/2000/svg">
<path d="M27.9934 2.11282C43.097 2.11282 52.289 11.4092 52.289 26.4102C52.289 41.5119 42.9914 50.2801 27.9934 50.2801H17.8506V73.9386H0V2.11282H27.9934ZM17.8556 17.4308V34.9571H25.0401C29.9003 34.9571 33.7038 32.9549 33.7038 26.4102C33.7038 19.7498 29.9003 17.4308 25.0401 17.4308H17.8556Z" fill="black"/>
<path d="M60.4343 33.8001V22.6072C67.9358 21.1232 75.6436 20.0718 82.1941 20.0718C95.7179 20.0718 103.637 23.3416 103.637 37.915V73.9385H88.3221L86.7373 68.2339H86.526C82.7224 73.516 78.4962 75 72.3733 75C62.4418 75 57.1641 67.2882 57.1641 58.198C57.1641 44.4647 67.2013 41.7181 74.6977 41.7181H86.7423V38.6646C86.7423 35.3847 85.4745 33.8001 80.1917 33.8001H60.4343ZM86.7373 51.8596H79.9754C76.3832 51.8596 74.0587 53.2329 74.0587 57.036C74.0587 61.151 77.0171 62.1068 79.8698 62.1068C82.5111 62.1068 86.7373 60.5272 86.7373 55.2401V51.8596Z" fill="black"/>
<path d="M129.765 0V15.6298H112.865V0H129.765ZM129.765 21.1282V73.9386H112.865V21.1282H129.765Z" fill="black"/>
<path d="M161.37 20.0768C168.237 20.0768 172.569 20.6 180.066 22.6122V33.8051H162.215C158.2 33.8051 156.51 35.1784 156.51 36.8687C156.51 38.5589 157.461 39.7159 161.581 40.5611C170.562 42.1406 182.39 44.4698 182.39 57.8811C182.39 70.558 172.247 74.9949 159.468 74.9949C152.601 74.9949 145.421 74.4667 137.92 72.4596V61.2465H158.517C162.215 61.2465 163.8 59.677 163.8 57.866C163.8 56.1657 162.743 55.0188 158.729 54.2692C149.642 52.6896 138.025 50.4661 138.025 36.8485C138.025 24.5036 148.696 20.0768 161.37 20.0768Z" fill="black"/>
<path d="M257.244 36.758C255.342 48.4791 251.644 56.6134 247.418 62.2174L258.723 73.9385H247.101L241.396 68.1333C234.528 73.7323 226.926 74.9999 221.326 74.9999C205.906 74.9999 198.721 66.8656 198.721 55.879C198.721 46.8995 204.427 41.0943 211.4 36.758C206.434 30.7364 202.842 25.882 202.842 19.2317C202.842 7.29425 212.879 1.06647 226.081 1.06647C231.68 1.06647 233.688 1.58964 240.445 2.96297V9.40706H226.186C216.36 9.40706 212.245 13.4164 212.245 19.7548C212.245 24.8256 216.26 29.4738 226.503 40.3598L241.713 56.5178C244.988 52.1966 247.841 45.8531 249.214 36.763L257.244 36.758ZM235.801 62.5293L216.365 42.1406C211.294 45.0986 207.385 49.1179 207.385 55.2401C207.385 60.2102 209.815 67.8164 221.96 67.8164C224.918 67.8164 230.518 66.9712 235.801 62.5293Z" fill="black"/>
<path d="M333.587 73.9385H314.041L310.227 59.1589H291.109L287.411 73.9385H267.87L287.834 1.58461H313.407L333.587 73.9385ZM294.183 45.4256H307.073L300.633 21.4401H300.527L294.183 45.4256Z" fill="black"/>
<path d="M338.996 0H355.891V57.353C355.891 60.6279 356.947 61.2567 362.753 61.2567V74.4618C342.472 75.5132 338.98 71.8258 338.98 57.353V0H338.996Z" fill="black"/>
<path d="M415.218 21.1281V73.9385H399.898L398.318 68.2389H398.112C394.303 72.8871 389.655 74.9999 383.542 74.9999C372.544 74.9999 368.212 67.9169 368.212 58.4143V21.1281H385.111V56.8347C385.111 60.844 388.492 62.1117 391.345 62.1117C394.092 62.1117 398.318 60.3209 398.318 55.2451V21.1332L415.218 21.1281Z" fill="black"/>
<path d="M424.495 73.9385V21.1282H439.815L441.394 26.8378H441.606C445.304 22.1896 450.058 20.0768 456.181 20.0768C467.169 20.0768 471.501 27.2604 471.501 36.758V73.9385H454.601V38.3426C454.601 34.2276 451.115 32.9599 448.368 32.9599C445.621 32.9599 441.394 34.7558 441.394 39.9373V73.9485H424.495V73.9385Z" fill="black"/>
<path d="M479.209 47.5384C479.209 30.7415 486.187 20.0818 504.777 20.0818C523.478 20.0818 530.446 30.7415 530.446 47.5384C530.446 64.4359 523.478 75 504.777 75C486.187 75 479.209 64.4359 479.209 47.5384ZM496.954 47.5384C496.954 56.6285 498.533 61.3723 504.777 61.3723C511.116 61.3723 512.696 56.6285 512.696 47.5384C512.696 38.4482 511.116 33.7044 504.777 33.7044C498.549 33.6944 496.954 38.4482 496.954 47.5384Z" fill="black"/>
<path d="M559.98 20.0768C566.832 20.0768 571.174 20.6 578.67 22.6122V33.8051H560.825C556.805 33.8051 555.114 35.1784 555.114 36.8687C555.114 38.5589 556.06 39.7159 560.186 40.5611C569.166 42.1406 581 44.4698 581 57.8811C581 70.558 570.857 74.9949 558.073 74.9949C551.205 74.9949 544.021 74.4667 536.524 72.4596V61.2465H557.127C560.825 61.2465 562.41 59.677 562.41 57.866C562.41 56.1657 561.353 55.0188 557.338 54.2692C548.247 52.6896 536.635 50.4661 536.635 36.8485C536.635 24.5036 547.306 20.0768 559.98 20.0768Z" fill="black"/>
</svg>
