<svg width="420" height="130" viewBox="0 0 420 130" fill="none" xmlns="http://www.w3.org/2000/svg">
<path d="M75.8399 84.7999H38.6399C38.6399 95.1149 44.2799 125.12 44.2799 125.12H24.5949C24.5949 125.12 4.90991 94.0349 4.90991 63.6749V4.03491C4.90991 4.03491 72.9549 4.03491 75.8399 4.03491V84.7999ZM156.37 84.5649H117.365C119.645 98.4849 135.605 105.325 152.05 110.125L147.13 125.125C102.61 125.125 85.6849 87.3199 85.6849 63.7999V4.03491H156.375V84.5649H156.37Z" fill="#009DE0"/>
<path d="M201.345 4.03491C212.385 4.03491 218.985 10.9949 218.985 21.5549C218.985 32.4799 212.385 38.9549 201.345 38.9549H190.905V59.5949H180.585V4.03491H201.345ZM214.425 78.56H191.265V92.24H210.465V101.24H191.265V116.125H214.425V125.125H180.82V69.56H214.425V78.56ZM190.905 13.0349V30.0749H199.785C204.7 30.0749 208.065 27.5549 208.065 21.5549C208.065 15.7949 204.7 13.0349 199.785 13.0349H190.905ZM246.35 69.56H256.07V125.125H247.07L246.345 120.44H246.105C243.225 124.285 240.105 125.96 235.42 125.96C224.62 125.96 220.06 117.56 220.06 104.72C220.06 91.88 225.58 83.475 238.3 83.475C241.18 83.475 242.985 83.595 246.34 84.075V69.56H246.35ZM240.47 17.9549C254.27 17.9549 259.315 26.3549 259.315 39.1949C259.315 52.0349 254.27 60.4349 240.47 60.4349C226.79 60.4349 221.625 52.0349 221.625 39.1949C221.625 26.3549 226.79 17.9549 240.47 17.9549ZM246.35 91.645H239.39C232.665 91.645 230.385 96.925 230.385 104.725C230.385 112.405 231.825 118.045 238.665 118.045C242.145 118.045 246.345 115.765 246.345 110.605V91.645H246.35ZM240.47 52.3999C247.07 52.3999 248.99 47.2399 248.99 39.1949C248.99 31.2749 247.07 25.9899 240.47 25.9899C233.745 25.9899 231.95 31.2749 231.95 39.1949C231.95 47.2399 233.75 52.3999 240.47 52.3999ZM265.07 59.5949V18.6749H273.95L274.79 25.5149H275.03C277.675 19.9999 282.95 17.9549 287.875 17.9549V27.5549H285.48C278.04 27.5549 274.795 31.2749 274.795 35.9549V59.5999H265.07V59.5949ZM275.155 69.56V78.92H265.31V69.56H275.155ZM275.155 84.2V125.125H265.31V84.2H275.155ZM288.35 91.88H282.23V85.88L288.35 84.2L292.91 72.8H298.195V84.2H308.395V91.88H298.195V114.08C298.195 116.84 299.395 117.8 302.275 117.8H308.395V124.155C305.155 125.355 302.995 125.955 299.875 125.955C291.115 125.955 288.35 121.155 288.35 114.915V91.88ZM298.675 26.3549H292.555V20.3549L298.675 18.6749L303.235 7.27491H308.52V18.6749H318.72V26.3549H308.52V48.5549C308.52 51.3149 309.715 52.2749 312.595 52.2749H318.72V58.755C315.48 59.8349 313.32 60.4349 310.2 60.4349C301.435 60.4349 298.675 55.6349 298.675 49.3949V26.3549ZM331.675 83.48C345.48 83.48 350.52 91.885 350.52 104.725C350.52 117.565 345.48 125.965 331.675 125.965C317.995 125.965 312.955 117.565 312.955 104.725C312.955 91.885 317.995 83.48 331.675 83.48ZM341.275 17.9549C354.955 17.9549 360 26.3549 360 39.1949C360 52.0349 354.955 60.4349 341.275 60.4349C327.475 60.4349 322.435 52.0349 322.435 39.1949C322.435 26.3549 327.48 17.9549 341.275 17.9549ZM331.675 117.92C338.4 117.92 340.195 112.64 340.195 104.72C340.195 96.8 338.4 91.515 331.675 91.515C325.075 91.515 323.275 96.8 323.275 104.72C323.275 112.64 325.075 117.92 331.675 117.92ZM341.275 52.3999C347.875 52.3999 349.68 47.2399 349.68 39.1949C349.68 31.2749 347.88 25.9899 341.275 25.9899C334.555 25.9899 332.755 31.2749 332.755 39.1949C332.755 47.2399 334.56 52.3999 341.275 52.3999ZM356.28 125.125V84.2H365.28L366.12 91.04H366.24C368.875 85.52 374.16 83.475 379.2 83.475V93.08H376.68C369.24 93.08 366.12 96.8 366.12 101.36V125.12H356.28V125.125ZM383.885 91.645V85.16C389.405 84.08 394.925 83.48 399.605 83.48C409.45 83.48 415.09 86.245 415.09 97.045V125.125H406.09L405.365 120.44H405.125C401.885 124.76 398.405 125.96 393.485 125.96C385.68 125.96 381.245 120.68 381.245 113.48C381.245 103.64 388.085 101 395.045 101H405.365V97.4C405.365 93.685 404.045 91.645 398.645 91.645H383.885ZM405.365 107.245H397.685C393.485 107.245 390.965 109.045 390.965 112.885C390.965 116.845 394.085 118.285 397.565 118.285C400.8 118.285 405.365 116.125 405.365 110.845V107.245Z" fill="white"/>
</svg>
